# xmcd
#
# Track frame offsets: 
#        150
#        19593
#        36784
#        53452
#        74314
#        93128
#        109330
#        124933
#        142641
#        162770
#        183966
#        200146
#        221414
#
# Disc length: 3141 seconds
#
# Revision: 0
# Processed by: cddbd v1.5.2PL0 Copyright (c) Steve Scherf et al.
# Submitted via: ExactAudioCopy v1.0b1
#
DISCID=a90c430d
DTITLE=Doc Gyneco - Peace Maker
DYEAR=2008
DGENRE=Country
TTITLE0=A coeur ouvert
TTITLE1=Ma route
TTITLE2=L'incompris
TTITLE3=A mes côtés
TTITLE4=Céleste
TTITLE5=Comme d'hab
TTITLE6=Numéros
TTITLE7=Ma bourgeoise
TTITLE8=A nos héros
TTITLE9=La rue
TTITLE10=Toxico
TTITLE11=Le souffle
TTITLE12=Changer le monde
EXTD=
EXTT0=
EXTT1=
EXTT2=
EXTT3=
EXTT4=
EXTT5=
EXTT6=
EXTT7=
EXTT8=
EXTT9=
EXTT10=
EXTT11=
EXTT12=
PLAYORDER=
